<?xml version="1.0" encoding="UTF-8" standalone="no"?>
<!DOCTYPE svg PUBLIC "-//W3C//DTD SVG 1.1//EN" "http://www.w3.org/Graphics/SVG/1.1/DTD/svg11.dtd">
<!-- Generated by Microsoft Visio, SVG Export ReleaseDiagram.svg Page-1 -->
<svg xmlns="http://www.w3.org/2000/svg" xmlns:xlink="http://www.w3.org/1999/xlink" xmlns:ev="http://www.w3.org/2001/xml-events"
		xmlns:v="http://schemas.microsoft.com/visio/2003/SVGExtensions/" width="11in" height="8.5in" viewBox="0 0 792 612"
		xml:space="preserve" color-interpolation-filters="sRGB" class="st18">
	<v:documentProperties v:langID="1033" v:viewMarkup="false">
		<v:userDefs>
			<v:ud v:nameU="msvSubprocessMaster" v:prompt="" v:val="VT4(Rectangle)"/>
			<v:ud v:nameU="msvNoAutoConnect" v:val="VT0(1):26"/>
		</v:userDefs>
	</v:documentProperties>

	<style type="text/css">
	<![CDATA[
		.st1 {fill:url(#grad0-4);stroke:#4f87bb;stroke-width:0.75}
		.st2 {fill:#4f87bb;font-family:Calibri;font-size:0.833336em}
		.st3 {visibility:visible}
		.st4 {fill:#5b9bd5;fill-opacity:0.25;filter:url(#filter_2);stroke:#5b9bd5;stroke-opacity:0.25}
		.st5 {fill:#4f87bb;stroke:#40709c;stroke-width:0.75}
		.st6 {fill:#feffff;font-family:Calibri;font-size:1.00001em}
		.st7 {fill:#5b9bd5;fill-opacity:0.22;filter:url(#filter_2);stroke:#5b9bd5;stroke-opacity:0.22}
		.st8 {fill:#5b9bd5;stroke:#c7c8c8;stroke-width:0.25}
		.st9 {fill:#feffff;font-family:Calibri;font-size:0.833336em}
		.st10 {marker-end:url(#mrkr4-49);stroke:#5b9bd5;stroke-linecap:round;stroke-linejoin:round;stroke-width:1}
		.st11 {fill:#5b9bd5;fill-opacity:1;stroke:#5b9bd5;stroke-opacity:1;stroke-width:0.28409090909091}
		.st12 {marker-start:url(#mrkr4-65);stroke:#5b9bd5;stroke-linecap:round;stroke-linejoin:round;stroke-width:1}
		.st13 {fill:#ffffff;stroke:none;stroke-linecap:butt;stroke-width:7.2}
		.st14 {fill:#4f87bb;font-family:Calibri;font-size:0.666664em}
		.st15 {marker-end:url(#mrkr4-73);stroke:#5b9bd5;stroke-linecap:round;stroke-linejoin:round;stroke-width:1}
		.st16 {fill:#ffffff;stroke:none;stroke-linecap:butt}
		.st17 {stroke:#5b9bd5;stroke-linecap:round;stroke-linejoin:round;stroke-width:1}
		.st18 {fill:none;fill-rule:evenodd;font-size:12px;overflow:visible;stroke-linecap:square;stroke-miterlimit:3}
	]]>
	</style>

	<defs id="Patterns_And_Gradients">
		<linearGradient id="grad0-4" x1="0" y1="0" x2="1" y2="0" gradientTransform="rotate(60 0.5 0.5)">
			<stop offset="0" stop-color="#e9eff7" stop-opacity="1"/>
			<stop offset="0.24" stop-color="#f4f7fb" stop-opacity="1"/>
			<stop offset="0.54" stop-color="#feffff" stop-opacity="1"/>
		</linearGradient>
	</defs>
	<defs id="Markers">
		<g id="lend4">
			<path d="M 2 1 L 0 0 L 2 -1 L 2 1 " style="stroke:none"/>
		</g>
		<marker id="mrkr4-49" class="st11" v:arrowType="4" v:arrowSize="2" v:setback="7.04" refX="-7.04" orient="auto"
				markerUnits="strokeWidth" overflow="visible">
			<use xlink:href="#lend4" transform="scale(-3.52,-3.52) "/>
		</marker>
		<marker id="mrkr4-65" class="st11" v:arrowType="4" v:arrowSize="2" v:setback="6.68" refX="6.68" orient="auto"
				markerUnits="strokeWidth" overflow="visible">
			<use xlink:href="#lend4" transform="scale(3.52) "/>
		</marker>
		<marker id="mrkr4-73" class="st11" v:arrowType="4" v:arrowSize="2" v:setback="6.68" refX="-6.68" orient="auto"
				markerUnits="strokeWidth" overflow="visible">
			<use xlink:href="#lend4" transform="scale(-3.52,-3.52) "/>
		</marker>
	</defs>
	<defs id="Filters">
		<filter id="filter_2">
			<feGaussianBlur stdDeviation="2"/>
		</filter>
	</defs>
	<g v:mID="0" v:index="1" v:groupContext="foregroundPage">
		<v:userDefs>
			<v:ud v:nameU="msvThemeOrder" v:val="VT0(0):26"/>
		</v:userDefs>
		<title>Page-1</title>
		<v:pageProperties v:drawingScale="1" v:pageScale="1" v:drawingUnits="0" v:shadowOffsetX="9" v:shadowOffsetY="-9"/>
		<v:layer v:name="Connector" v:index="0"/>
		<g id="shape2-1" v:mID="2" v:groupContext="shape" transform="translate(90,-444)">
			<title>Ellipse</title>
			<desc>Release 1.0</desc>
			<v:userDefs>
				<v:ud v:nameU="visVersion" v:val="VT0(15):26"/>
			</v:userDefs>
			<v:textBlock v:margins="rect(4,4,4,4)"/>
			<v:textRect cx="36" cy="588" width="63" height="42"/>
			<path d="M0 588 A36 24 0 0 1 72 588 A36 24 0 1 1 0 588 Z" class="st1"/>
			<text x="12.86" y="591" class="st2" v:langID="1033"><v:paragraph v:horizAlign="1"/><v:tabList/>Release 1.0</text>		</g>
		<g id="shape3-6" v:mID="3" v:groupContext="shape" transform="translate(90,-288)">
			<title>Ellipse.3</title>
			<desc>Release 1.0</desc>
			<v:userDefs>
				<v:ud v:nameU="visVersion" v:val="VT0(15):26"/>
			</v:userDefs>
			<v:textBlock v:margins="rect(4,4,4,4)"/>
			<v:textRect cx="36" cy="588" width="63" height="42"/>
			<path d="M0 588 A36 24 0 0 1 72 588 A36 24 0 1 1 0 588 Z" class="st1"/>
			<text x="12.86" y="591" class="st2" v:langID="1033"><v:paragraph v:horizAlign="1"/><v:tabList/>Release 1.0</text>		</g>
		<g id="shape4-10" v:mID="4" v:groupContext="shape" transform="translate(90,-132)">
			<title>Ellipse.4</title>
			<desc>Release 1.0</desc>
			<v:userDefs>
				<v:ud v:nameU="visVersion" v:val="VT0(15):26"/>
			</v:userDefs>
			<v:textBlock v:margins="rect(4,4,4,4)"/>
			<v:textRect cx="36" cy="588" width="63" height="42"/>
			<path d="M0 588 A36 24 0 0 1 72 588 A36 24 0 1 1 0 588 Z" class="st1"/>
			<text x="12.86" y="591" class="st2" v:langID="1033"><v:paragraph v:horizAlign="1"/><v:tabList/>Release 1.0</text>		</g>
		<g id="shape6-14" v:mID="6" v:groupContext="shape" transform="translate(18,-302)">
			<title>Sheet.6</title>
			<desc>Next</desc>
			<v:textBlock v:margins="rect(4,4,4,4)"/>
			<v:textRect cx="27" cy="602" width="54" height="20"/>
			<g id="shadow6-15" v:groupContext="shadow" v:shadowOffsetX="0.345598" v:shadowOffsetY="-1.97279" v:shadowType="1"
					transform="matrix(1,0,0,1,0.345598,1.97279)" class="st3">
				<rect x="0" y="592" width="54" height="20" class="st4"/>
			</g>
			<rect x="0" y="592" width="54" height="20" class="st5"/>
			<text x="15.53" y="605.6" class="st6" v:langID="1033"><v:paragraph v:horizAlign="1"/><v:tabList/>Next</text>		</g>
		<g id="shape7-20" v:mID="7" v:groupContext="shape" transform="translate(18,-458)">
			<title>Sheet.7</title>
			<desc>Master</desc>
			<v:textBlock v:margins="rect(4,4,4,4)"/>
			<v:textRect cx="27" cy="602" width="54" height="20"/>
			<g id="shadow7-21" v:groupContext="shadow" v:shadowOffsetX="0.345598" v:shadowOffsetY="-1.97279" v:shadowType="1"
					transform="matrix(1,0,0,1,0.345598,1.97279)" class="st3">
				<rect x="0" y="592" width="54" height="20" class="st4"/>
			</g>
			<rect x="0" y="592" width="54" height="20" class="st5"/>
			<text x="9.56" y="605.6" class="st6" v:langID="1033"><v:paragraph v:horizAlign="1"/><v:tabList/>Master</text>		</g>
		<g id="shape8-26" v:mID="8" v:groupContext="shape" transform="translate(18,-146)">
			<title>Sheet.8</title>
			<desc>Dev</desc>
			<v:textBlock v:margins="rect(4,4,4,4)"/>
			<v:textRect cx="27" cy="602" width="54" height="20"/>
			<g id="shadow8-27" v:groupContext="shadow" v:shadowOffsetX="0.345598" v:shadowOffsetY="-1.97279" v:shadowType="1"
					transform="matrix(1,0,0,1,0.345598,1.97279)" class="st3">
				<rect x="0" y="592" width="54" height="20" class="st4"/>
			</g>
			<rect x="0" y="592" width="54" height="20" class="st5"/>
			<text x="17.61" y="605.6" class="st6" v:langID="1033"><v:paragraph v:horizAlign="1"/><v:tabList/>Dev</text>		</g>
		<g id="shape9-32" v:mID="9" v:groupContext="shape" transform="translate(189,-219)">
			<title>Rectangle</title>
			<desc>Feature/create-thing</desc>
			<v:userDefs>
				<v:ud v:nameU="visVersion" v:val="VT0(15):26"/>
			</v:userDefs>
			<v:textBlock v:margins="rect(4,4,4,4)"/>
			<v:textRect cx="49.5" cy="588" width="99.01" height="48"/>
			<g id="shadow9-33" v:groupContext="shadow" v:shadowOffsetX="0.345598" v:shadowOffsetY="-1.97279" v:shadowType="1"
					transform="matrix(1,0,0,1,0.345598,1.97279)" class="st3">
				<rect x="0" y="564" width="99" height="48" class="st7"/>
			</g>
			<rect x="0" y="564" width="99" height="48" class="st8"/>
			<text x="6.99" y="591" class="st9" v:langID="1033"><v:paragraph v:horizAlign="1"/><v:tabList/>Feature/create-thing</text>		</g>
		<g id="shape10-38" v:mID="10" v:groupContext="shape" transform="translate(333,-219)">
			<title>Rectangle.10</title>
			<desc>Bugfix/fix-thing</desc>
			<v:userDefs>
				<v:ud v:nameU="visVersion" v:val="VT0(15):26"/>
			</v:userDefs>
			<v:textBlock v:margins="rect(4,4,4,4)"/>
			<v:textRect cx="49.5" cy="588" width="99.01" height="48"/>
			<g id="shadow10-39" v:groupContext="shadow" v:shadowOffsetX="0.345598" v:shadowOffsetY="-1.97279" v:shadowType="1"
					transform="matrix(1,0,0,1,0.345598,1.97279)" class="st3">
				<rect x="0" y="564" width="99" height="48" class="st7"/>
			</g>
			<rect x="0" y="564" width="99" height="48" class="st8"/>
			<text x="18.23" y="591" class="st9" v:langID="1033"><v:paragraph v:horizAlign="1"/><v:tabList/>Bugfix/fix-thing</text>		</g>
		<g id="shape11-44" v:mID="11" v:groupContext="shape" v:layerMember="0" transform="translate(162,-459)">
			<title>Dynamic connector</title>
			<path d="M0 603 L379.96 603" class="st10"/>
		</g>
		<g id="shape12-50" v:mID="12" v:groupContext="shape" v:layerMember="0" transform="translate(171,-320.813)">
			<title>Dynamic connector.12</title>
			<path d="M0 620.81 L465.46 621.18" class="st10"/>
		</g>
		<g id="shape13-55" v:mID="13" v:groupContext="shape" v:layerMember="0" transform="translate(172.2,-165.788)">
			<title>Dynamic connector.13</title>
			<path d="M0 620.59 L468.76 621.4" class="st10"/>
		</g>
		<g id="shape15-60" v:mID="15" v:groupContext="shape" v:layerMember="0" transform="translate(245.25,-267)">
			<title>Dynamic connector.15</title>
			<desc>Branch from Next</desc>
			<v:textBlock v:margins="rect(4,4,4,4)"/>
			<v:textRect cx="-6.94772" cy="588.702" width="67.32" height="17.6036"/>
			<path d="M-6.76 605.32 L-6.76 604.96 C-6.79 593.93 -6.96 579.96 -7.85 573.24 C-8.67 567 -10.13 567 -11.25 567"
					class="st12"/>
			<rect v:rectContext="textBkgnd" x="-35.7013" y="583.902" width="57.5074" height="9.59985" class="st13"/>
			<text x="-35.7" y="591.1" class="st14" v:langID="1033"><v:paragraph v:horizAlign="1"/><v:tabList/>Branch from Next</text>		</g>
		<g id="shape16-68" v:mID="16" v:groupContext="shape" v:layerMember="0" transform="translate(231.75,-219)">
			<title>Dynamic connector.16</title>
			<desc>Push to Dev</desc>
			<v:textBlock v:margins="rect(4,4,4,4)"/>
			<v:textRect cx="6.9406" cy="644.198" width="48.52" height="17.6036"/>
			<path d="M6.75 612 C6.75 627.75 6.75 654.71 7.85 666.29 C7.93 667.18 8.02 667.98 8.12 668.69 L8.28 669.02" class="st15"/>
			<rect v:rectContext="textBkgnd" x="-12.4088" y="639.398" width="38.6991" height="9.59985" class="st16"/>
			<text x="-12.41" y="646.6" class="st14" v:langID="1033"><v:paragraph v:horizAlign="1"/><v:tabList/>Push to Dev</text>		</g>
		<g id="shape17-76" v:mID="17" v:groupContext="shape" v:layerMember="0" transform="translate(288,-243)">
			<title>Dynamic connector.17</title>
			<desc>Pull request</desc>
			<v:textBlock v:margins="rect(4,4,4,4)"/>
			<v:textRect cx="16.9875" cy="581.967" width="48.6" height="17.6036"/>
			<path d="M0 612 C4.5 612 10.41 612 13.74 602.07 C17.46 590.94 17.93 567.33 17.99 550.04 L17.99 549.68" class="st15"/>
			<rect v:rectContext="textBkgnd" x="-2.4027" y="577.168" width="38.7806" height="9.59985" class="st16"/>
			<text x="-2.4" y="584.37" class="st14" v:langID="1033"><v:paragraph v:horizAlign="1"/><v:tabList/>Pull request</text>		</g>
		<g id="shape18-83" v:mID="18" v:groupContext="shape" v:layerMember="0" transform="translate(389.25,-267)">
			<title>Dynamic connector.18</title>
			<desc>Branch from Next</desc>
			<v:textBlock v:margins="rect(4,4,4,4)"/>
			<v:textRect cx="-6.94772" cy="588.702" width="67.32" height="17.6036"/>
			<path d="M-6.76 605.32 L-6.76 604.96 C-6.79 593.93 -6.96 579.96 -7.85 573.24 C-8.67 567 -10.12 567 -11.25 567"
					class="st12"/>
			<rect v:rectContext="textBkgnd" x="-35.7013" y="583.902" width="57.5074" height="9.59985" class="st13"/>
			<text x="-35.7" y="591.1" class="st14" v:langID="1033"><v:paragraph v:horizAlign="1"/><v:tabList/>Branch from Next</text>		</g>
		<g id="shape19-90" v:mID="19" v:groupContext="shape" v:layerMember="0" transform="translate(375.75,-219)">
			<title>Dynamic connector.19</title>
			<desc>Push to Dev</desc>
			<v:textBlock v:margins="rect(4,4,4,4)"/>
			<v:textRect cx="6.9406" cy="644.198" width="48.52" height="17.6036"/>
			<path d="M6.75 612 C6.75 627.75 6.75 654.71 7.85 666.29 C7.93 667.18 8.02 667.98 8.12 668.69 L8.28 669.02" class="st15"/>
			<rect v:rectContext="textBkgnd" x="-12.4088" y="639.398" width="38.6991" height="9.59985" class="st13"/>
			<text x="-12.41" y="646.6" class="st14" v:langID="1033"><v:paragraph v:horizAlign="1"/><v:tabList/>Push to Dev</text>		</g>
		<g id="shape20-97" v:mID="20" v:groupContext="shape" v:layerMember="0" transform="translate(432,-243)">
			<title>Dynamic connector.20</title>
			<desc>Pull request</desc>
			<v:textBlock v:margins="rect(4,4,4,4)"/>
			<v:textRect cx="25.1079" cy="585.029" width="48.6" height="17.6036"/>
			<path d="M0 612 C6.75 612 15.82 612 20.83 601.61 C26.22 590.43 26.9 567.23 26.99 550.04 L26.99 549.68" class="st15"/>
			<rect v:rectContext="textBkgnd" x="5.71772" y="580.23" width="38.7806" height="9.59985" class="st13"/>
			<text x="5.72" y="587.43" class="st14" v:langID="1033"><v:paragraph v:horizAlign="1"/><v:tabList/>Pull request</text>		</g>
		<g id="shape23-104" v:mID="23" v:groupContext="shape" transform="translate(450,-363)">
			<title>Rectangle.23</title>
			<desc>Pre-Release 1.1</desc>
			<v:userDefs>
				<v:ud v:nameU="visVersion" v:val="VT0(15):26"/>
			</v:userDefs>
			<v:textBlock v:margins="rect(4,4,4,4)"/>
			<v:textRect cx="40.5" cy="588" width="81.01" height="48"/>
			<g id="shadow23-105" v:groupContext="shadow" v:shadowOffsetX="0.345598" v:shadowOffsetY="-1.97279" v:shadowType="1"
					transform="matrix(1,0,0,1,0.345598,1.97279)" class="st3">
				<rect x="0" y="564" width="81" height="48" class="st7"/>
			</g>
			<rect x="0" y="564" width="81" height="48" class="st8"/>
			<text x="9.02" y="591" class="st9" v:langID="1033"><v:paragraph v:horizAlign="1"/><v:tabList/>Pre-Release 1.1</text>		</g>
		<g id="shape24-110" v:mID="24" v:groupContext="shape" v:layerMember="0" transform="translate(497.25,-363)">
			<title>Dynamic connector.24</title>
			<desc>Branch from Next</desc>
			<v:textBlock v:margins="rect(4,4,4,4)"/>
			<v:textRect cx="-6.94467" cy="638.26" width="67.32" height="17.6036"/>
			<path d="M-6.75 612 C-6.75 624.75 -6.75 646.56 -7.85 655.94 C-8.67 663 -10.12 663 -11.25 663" class="st17"/>
			<rect v:rectContext="textBkgnd" x="-35.6983" y="633.46" width="57.5074" height="9.59985" class="st13"/>
			<text x="-35.7" y="640.66" class="st14" v:langID="1033"><v:paragraph v:horizAlign="1"/><v:tabList/>Branch from Next</text>		</g>
		<g id="shape25-115" v:mID="25" v:groupContext="shape" v:layerMember="0" transform="translate(450,-387)">
			<title>Dynamic connector.25</title>
			<desc>Bug fix made</desc>
			<v:textBlock v:margins="rect(4,4,4,4)"/>
			<v:textRect cx="-0.316603" cy="576.804" width="51.9" height="17.6036"/>
			<path d="M0 612 C-13.5 612 -17.85 589.18 -5.41 579.65 C5.52 571.29 29.39 573.18 37.63 581.57 L37.78 581.9" class="st15"/>
			<rect v:rectContext="textBkgnd" x="-21.3592" y="572.005" width="42.0853" height="9.59985" class="st13"/>
			<text x="-21.36" y="579.2" class="st14" v:langID="1033"><v:paragraph v:horizAlign="1"/><v:tabList/>Bug fix made</text>		</g>
		<g id="shape26-122" v:mID="26" v:groupContext="shape" v:layerMember="0" transform="translate(531,-387)">
			<title>Dynamic connector.26</title>
			<desc>Merge into Master</desc>
			<v:textBlock v:margins="rect(4,4,4,4)"/>
			<v:textRect cx="44.5736" cy="600.536" width="70.98" height="17.6036"/>
			<path d="M0 612 C13.5 612 33.6 612 43.72 601.47 C52.42 592.43 53.76 575.63 53.96 562.04 L53.96 561.68" class="st15"/>
			<rect v:rectContext="textBkgnd" x="13.994" y="595.736" width="61.1595" height="9.59985" class="st13"/>
			<text x="13.99" y="602.94" class="st14" v:langID="1033"><v:paragraph v:horizAlign="1"/><v:tabList/>Merge into Master</text>		</g>
		<g id="shape27-129" v:mID="27" v:groupContext="shape" transform="translate(549,-444)">
			<title>Ellipse.27</title>
			<desc>Release 1.1</desc>
			<v:userDefs>
				<v:ud v:nameU="visVersion" v:val="VT0(15):26"/>
			</v:userDefs>
			<v:textBlock v:margins="rect(4,4,4,4)"/>
			<v:textRect cx="36" cy="588" width="63" height="42"/>
			<path d="M0 588 A36 24 0 0 1 72 588 A36 24 0 1 1 0 588 Z" class="st1"/>
			<text x="12.86" y="591" class="st2" v:langID="1033"><v:paragraph v:horizAlign="1"/><v:tabList/>Release 1.1</text>		</g>
		<g id="shape34-133" v:mID="34" v:groupContext="shape" transform="translate(225,-363)">
			<title>Rectangle.34</title>
			<desc>Hotfix/fix-critical</desc>
			<v:userDefs>
				<v:ud v:nameU="visVersion" v:val="VT0(15):26"/>
			</v:userDefs>
			<v:textBlock v:margins="rect(4,4,4,4)"/>
			<v:textRect cx="49.5" cy="588" width="99.01" height="48"/>
			<g id="shadow34-134" v:groupContext="shadow" v:shadowOffsetX="0.345598" v:shadowOffsetY="-1.97279" v:shadowType="1"
					transform="matrix(1,0,0,1,0.345598,1.97279)" class="st3">
				<rect x="0" y="564" width="99" height="48" class="st7"/>
			</g>
			<rect x="0" y="564" width="99" height="48" class="st8"/>
			<text x="15.45" y="591" class="st9" v:langID="1033"><v:paragraph v:horizAlign="1"/><v:tabList/>Hotfix/fix-critical</text>		</g>
		<g id="shape36-139" v:mID="36" v:groupContext="shape" v:layerMember="0" transform="translate(225,-387)">
			<title>Dynamic connector.36</title>
			<desc>Branch from Master</desc>
			<v:textBlock v:margins="rect(4,4,4,4)"/>
			<v:textRect cx="-25.2856" cy="578.706" width="75.29" height="17.6036"/>
			<path d="M-6.67 611.62 L-7.03 611.6 C-12.13 610.75 -17.34 608.14 -20.72 600.06 C-27 585.07 -27 551.25 -27 531"
					class="st12"/>
			<rect v:rectContext="textBkgnd" x="-58.0197" y="573.906" width="65.4684" height="9.59985" class="st16"/>
			<text x="-58.02" y="581.11" class="st14" v:langID="1033"><v:paragraph v:horizAlign="1"/><v:tabList/>Branch from Master</text>		</g>
		<g id="shape37-146" v:mID="37" v:groupContext="shape" v:layerMember="0" transform="translate(324,-387)">
			<title>Dynamic connector.37</title>
			<desc>Merge into Master</desc>
			<v:textBlock v:margins="rect(4,4,4,4)"/>
			<v:textRect cx="33.2366" cy="581.87" width="70.98" height="17.6036"/>
			<path d="M0 612 C9 612 21.22 612 27.91 599.55 C35.12 586.14 35.9 558.28 35.99 538.04 L35.99 537.68" class="st15"/>
			<rect v:rectContext="textBkgnd" x="2.65696" y="577.07" width="61.1595" height="9.59985" class="st16"/>
			<text x="2.66" y="584.27" class="st14" v:langID="1033"><v:paragraph v:horizAlign="1"/><v:tabList/>Merge into Master</text>		</g>
		<g id="shape38-153" v:mID="38" v:groupContext="shape" v:layerMember="0" transform="translate(531,-387)">
			<title>Dynamic connector.38</title>
			<desc>Merge into Next</desc>
			<v:textBlock v:margins="rect(4,4,4,4)"/>
			<v:textRect cx="40.488" cy="635.669" width="63.02" height="17.6036"/>
			<path d="M0 612 C11.25 612 27.01 612 35.41 624.26 C43.87 636.62 44.87 661.42 44.98 679.96 L44.99 680.32" class="st15"/>
			<rect v:rectContext="textBkgnd" x="13.8888" y="630.869" width="53.1985" height="9.59985" class="st13"/>
			<text x="13.89" y="638.07" class="st14" v:langID="1033"><v:paragraph v:horizAlign="1"/><v:tabList/>Merge into Next</text>		</g>
		<g id="shape39-160" v:mID="39" v:groupContext="shape" v:layerMember="0" transform="translate(324,-387)">
			<title>Dynamic connector.39</title>
			<desc>Merge into Next</desc>
			<v:textBlock v:margins="rect(4,4,4,4)"/>
			<v:textRect cx="32.0374" cy="639.371" width="63.02" height="17.6036"/>
			<path d="M0 612 C8.7 612 20.56 612 27.03 623.62 C33.89 635.93 34.69 661.29 34.79 679.96 L34.79 680.32" class="st15"/>
			<rect v:rectContext="textBkgnd" x="5.43824" y="634.571" width="53.1985" height="9.59985" class="st13"/>
			<text x="5.44" y="641.77" class="st14" v:langID="1033"><v:paragraph v:horizAlign="1"/><v:tabList/>Merge into Next</text>		</g>
		<g id="shape40-167" v:mID="40" v:groupContext="shape" v:layerMember="0" transform="translate(621,-459)">
			<title>Dynamic connector.40</title>
			<path d="M0 603 L19.96 603" class="st10"/>
		</g>
	</g>
</svg>
